<mxfile host="app.diagrams.net" modified="2020-10-19T19:05:45.983Z" agent="5.0 (Windows NT 10.0; Win64; x64) AppleWebKit/537.36 (KHTML, like Gecko) Chrome/86.0.4240.75 Safari/537.36" etag="83cSnA2ytZO1lnj_PnYf" version="13.8.0" type="github">
  <diagram id="C5RBs43oDa-KdzZeNtuy" name="Page-1">
    <mxGraphModel dx="868" dy="393" grid="1" gridSize="10" guides="1" tooltips="1" connect="1" arrows="1" fold="1" page="1" pageScale="1" pageWidth="827" pageHeight="1169" math="0" shadow="0">
      <root>
        <mxCell id="WIyWlLk6GJQsqaUBKTNV-0" />
        <mxCell id="WIyWlLk6GJQsqaUBKTNV-1" parent="WIyWlLk6GJQsqaUBKTNV-0" />
        <mxCell id="LN-wFWYkmYRrGaJJ7iNA-13" style="edgeStyle=orthogonalEdgeStyle;rounded=0;orthogonalLoop=1;jettySize=auto;html=1;exitX=0.5;exitY=1;exitDx=0;exitDy=0;entryX=0.5;entryY=0;entryDx=0;entryDy=0;endArrow=openThin;endFill=0;" edge="1" parent="WIyWlLk6GJQsqaUBKTNV-1" source="LN-wFWYkmYRrGaJJ7iNA-0" target="LN-wFWYkmYRrGaJJ7iNA-4">
          <mxGeometry relative="1" as="geometry" />
        </mxCell>
        <mxCell id="LN-wFWYkmYRrGaJJ7iNA-0" value="Book" style="html=1;" vertex="1" parent="WIyWlLk6GJQsqaUBKTNV-1">
          <mxGeometry x="160" y="230" width="110" height="50" as="geometry" />
        </mxCell>
        <mxCell id="LN-wFWYkmYRrGaJJ7iNA-1" value="Author" style="html=1;" vertex="1" parent="WIyWlLk6GJQsqaUBKTNV-1">
          <mxGeometry x="530" y="80" width="110" height="50" as="geometry" />
        </mxCell>
        <mxCell id="LN-wFWYkmYRrGaJJ7iNA-2" value="Publisher" style="html=1;" vertex="1" parent="WIyWlLk6GJQsqaUBKTNV-1">
          <mxGeometry x="530" y="230" width="110" height="50" as="geometry" />
        </mxCell>
        <mxCell id="LN-wFWYkmYRrGaJJ7iNA-3" value="Owner" style="html=1;" vertex="1" parent="WIyWlLk6GJQsqaUBKTNV-1">
          <mxGeometry x="530" y="400" width="110" height="50" as="geometry" />
        </mxCell>
        <mxCell id="LN-wFWYkmYRrGaJJ7iNA-4" value="Library" style="html=1;" vertex="1" parent="WIyWlLk6GJQsqaUBKTNV-1">
          <mxGeometry x="160" y="400" width="110" height="50" as="geometry" />
        </mxCell>
        <mxCell id="LN-wFWYkmYRrGaJJ7iNA-5" value="Fiction Category" style="html=1;" vertex="1" parent="WIyWlLk6GJQsqaUBKTNV-1">
          <mxGeometry x="230" y="80" width="110" height="50" as="geometry" />
        </mxCell>
        <mxCell id="LN-wFWYkmYRrGaJJ7iNA-6" value="Mystery Category" style="html=1;" vertex="1" parent="WIyWlLk6GJQsqaUBKTNV-1">
          <mxGeometry x="90" y="80" width="110" height="50" as="geometry" />
        </mxCell>
        <mxCell id="LN-wFWYkmYRrGaJJ7iNA-9" value="" style="endArrow=block;endFill=0;endSize=12;html=1;edgeStyle=orthogonalEdgeStyle;exitX=0.5;exitY=1;exitDx=0;exitDy=0;entryX=0.5;entryY=0;entryDx=0;entryDy=0;" edge="1" parent="WIyWlLk6GJQsqaUBKTNV-1" source="LN-wFWYkmYRrGaJJ7iNA-6" target="LN-wFWYkmYRrGaJJ7iNA-0">
          <mxGeometry width="160" relative="1" as="geometry">
            <mxPoint x="330" y="100" as="sourcePoint" />
            <mxPoint x="490" y="100" as="targetPoint" />
          </mxGeometry>
        </mxCell>
        <mxCell id="LN-wFWYkmYRrGaJJ7iNA-10" value="" style="endArrow=block;endFill=0;endSize=12;html=1;exitX=0.5;exitY=1;exitDx=0;exitDy=0;edgeStyle=orthogonalEdgeStyle;entryX=0.5;entryY=0;entryDx=0;entryDy=0;" edge="1" parent="WIyWlLk6GJQsqaUBKTNV-1" source="LN-wFWYkmYRrGaJJ7iNA-5" target="LN-wFWYkmYRrGaJJ7iNA-0">
          <mxGeometry width="160" relative="1" as="geometry">
            <mxPoint x="330" y="100" as="sourcePoint" />
            <mxPoint x="220" y="220" as="targetPoint" />
          </mxGeometry>
        </mxCell>
        <mxCell id="LN-wFWYkmYRrGaJJ7iNA-14" value="1..*" style="text;html=1;align=center;verticalAlign=middle;resizable=0;points=[];autosize=1;" vertex="1" parent="WIyWlLk6GJQsqaUBKTNV-1">
          <mxGeometry x="215" y="280" width="30" height="20" as="geometry" />
        </mxCell>
        <mxCell id="LN-wFWYkmYRrGaJJ7iNA-15" value="has" style="text;html=1;align=center;verticalAlign=middle;resizable=0;points=[];autosize=1;" vertex="1" parent="WIyWlLk6GJQsqaUBKTNV-1">
          <mxGeometry x="215" y="330" width="30" height="20" as="geometry" />
        </mxCell>
        <mxCell id="LN-wFWYkmYRrGaJJ7iNA-16" value="1" style="text;html=1;align=center;verticalAlign=middle;resizable=0;points=[];autosize=1;" vertex="1" parent="WIyWlLk6GJQsqaUBKTNV-1">
          <mxGeometry x="220" y="380" width="20" height="20" as="geometry" />
        </mxCell>
      </root>
    </mxGraphModel>
  </diagram>
</mxfile>
